<?xml version="1.0" encoding="utf-8"?>
<!-- Generator: Adobe Illustrator 18.1.1, SVG Export Plug-In . SVG Version: 6.00 Build 0)  -->
<svg version="1.1" id="Layer_1" xmlns="http://www.w3.org/2000/svg" xmlns:xlink="http://www.w3.org/1999/xlink" x="0px" y="0px"
	 viewBox="0 0 128 128" enable-background="new 0 0 128 128" xml:space="preserve">
<circle fill="#5A7B87" cx="64" cy="64" r="64"/>
<path fill="#CDCFD0" stroke="#CDCFD0" stroke-width="3" stroke-miterlimit="10" d="M57.6,47.5c0,0,6.8-7,14.7-7s11.5,2,13.6,4.9
	c2,2.8,3.1,5.9,3.5,8.7s0.4,3.8,2.8,7.6c1.4,2.1,10,3.2,9.3,13S93.9,86,90.9,87s-52.7,0-52.7,0s-12.1-3.8-11.7-15.7
	s14-13.8,16.6-16.4c1.7-1.7,0.1-5.2,4.4-8.4C51.5,43.5,57.6,47.5,57.6,47.5z"/>
</svg>
